<svg id="visual" viewBox="0 0 900 600" width="900" height="600" xmlns="http://www.w3.org/2000/svg" xmlns:xlink="http://www.w3.org/1999/xlink" version="1.1"><rect width="900" height="600" fill="#fff"></rect><g><g transform="translate(442 579)"><path d="M0 -106.2L92 -53.1L92 53.1L0 106.2L-92 53.1L-92 -53.1Z" fill="#ff00ff"></path></g><g transform="translate(285 88)"><path d="M0 -97L84 -48.5L84 48.5L0 97L-84 48.5L-84 -48.5Z" fill="#ff00ff"></path></g><g transform="translate(12 96)"><path d="M0 -89L77.1 -44.5L77.1 44.5L0 89L-77.1 44.5L-77.1 -44.5Z" fill="#ff00ff"></path></g><g transform="translate(879 261)"><path d="M0 -43L37.2 -21.5L37.2 21.5L0 43L-37.2 21.5L-37.2 -21.5Z" fill="#ff00ff"></path></g><g transform="translate(279 425)"><path d="M0 -14L12.1 -7L12.1 7L0 14L-12.1 7L-12.1 -7Z" fill="#ff00ff"></path></g><g transform="translate(733 11)"><path d="M0 -29L25.1 -14.5L25.1 14.5L0 29L-25.1 14.5L-25.1 -14.5Z" fill="#ff00ff"></path></g><g transform="translate(87 540)"><path d="M0 -48L41.6 -24L41.6 24L0 48L-41.6 24L-41.6 -24Z" fill="#ff00ff"></path></g><g transform="translate(788 462)"><path d="M0 -82L71 -41L71 41L0 82L-71 41L-71 -41Z" fill="#ff00ff"></path></g><g transform="translate(609 193)"><path d="M0 -23L19.9 -11.5L19.9 11.5L0 23L-19.9 11.5L-19.9 -11.5Z" fill="#ff00ff"></path></g></g></svg>