<svg id="visual" viewBox="0 0 960 540" width="960" height="540" xmlns="http://www.w3.org/2000/svg" xmlns:xlink="http://www.w3.org/1999/xlink" version="1.1"><rect x="0" y="0" width="960" height="540" fill="#fff"></rect><defs><linearGradient id="grad1_0" x1="43.8%" y1="100%" x2="100%" y2="0%"><stop offset="14.444444444444446%" stop-color="#dcaffa" stop-opacity="1"></stop><stop offset="85.55555555555554%" stop-color="#dcaffa" stop-opacity="1"></stop></linearGradient></defs><defs><linearGradient id="grad1_1" x1="43.8%" y1="100%" x2="100%" y2="0%"><stop offset="14.444444444444446%" stop-color="#dcaffa" stop-opacity="1"></stop><stop offset="85.55555555555554%" stop-color="#e9cafc" stop-opacity="1"></stop></linearGradient></defs><defs><linearGradient id="grad1_2" x1="43.8%" y1="100%" x2="100%" y2="0%"><stop offset="14.444444444444446%" stop-color="#f4e4fe" stop-opacity="1"></stop><stop offset="85.55555555555554%" stop-color="#e9cafc" stop-opacity="1"></stop></linearGradient></defs><defs><linearGradient id="grad1_3" x1="43.8%" y1="100%" x2="100%" y2="0%"><stop offset="14.444444444444446%" stop-color="#f4e4fe" stop-opacity="1"></stop><stop offset="85.55555555555554%" stop-color="#ffffff" stop-opacity="1"></stop></linearGradient></defs><defs><linearGradient id="grad2_0" x1="0%" y1="100%" x2="56.3%" y2="0%"><stop offset="14.444444444444446%" stop-color="#dcaffa" stop-opacity="1"></stop><stop offset="85.55555555555554%" stop-color="#dcaffa" stop-opacity="1"></stop></linearGradient></defs><defs><linearGradient id="grad2_1" x1="0%" y1="100%" x2="56.3%" y2="0%"><stop offset="14.444444444444446%" stop-color="#e9cafc" stop-opacity="1"></stop><stop offset="85.55555555555554%" stop-color="#dcaffa" stop-opacity="1"></stop></linearGradient></defs><defs><linearGradient id="grad2_2" x1="0%" y1="100%" x2="56.3%" y2="0%"><stop offset="14.444444444444446%" stop-color="#e9cafc" stop-opacity="1"></stop><stop offset="85.55555555555554%" stop-color="#f4e4fe" stop-opacity="1"></stop></linearGradient></defs><defs><linearGradient id="grad2_3" x1="0%" y1="100%" x2="56.3%" y2="0%"><stop offset="14.444444444444446%" stop-color="#ffffff" stop-opacity="1"></stop><stop offset="85.55555555555554%" stop-color="#f4e4fe" stop-opacity="1"></stop></linearGradient></defs><g transform="translate(960, 540)"><path d="M-405 0C-394.3 -70.6 -383.5 -141.2 -350.7 -202.5C-318 -263.8 -263.1 -315.9 -201 -348.1C-138.9 -380.4 -69.4 -392.7 0 -405L0 0Z" fill="#faf2fe"></path><path d="M-303.7 0C-295.7 -52.9 -287.6 -105.9 -263.1 -151.9C-238.5 -197.9 -197.3 -236.9 -150.8 -261.1C-104.2 -285.3 -52.1 -294.5 0 -303.7L0 0Z" fill="#eed7fd"></path><path d="M-202.5 0C-197.1 -35.3 -191.8 -70.6 -175.4 -101.3C-159 -131.9 -131.6 -158 -100.5 -174.1C-69.4 -190.2 -34.7 -196.3 0 -202.5L0 0Z" fill="#e2bcfb"></path><path d="M-101.2 0C-98.6 -17.6 -95.9 -35.3 -87.7 -50.6C-79.5 -66 -65.8 -79 -50.3 -87C-34.7 -95.1 -17.4 -98.2 0 -101.2L0 0Z" fill="#dcaffa"></path></g><g transform="translate(0, 0)"><path d="M405 0C334 35.6 263 71.1 238.2 137.5C213.3 203.9 234.5 301 202.5 350.7C170.5 400.5 85.2 402.7 0 405L0 0Z" fill="#faf2fe"></path><path d="M303.8 0C250.5 26.7 197.3 53.4 178.6 103.1C160 152.9 175.9 225.8 151.9 263.1C127.9 300.3 63.9 302 0 303.8L0 0Z" fill="#eed7fd"></path><path d="M202.5 0C167 17.8 131.5 35.6 119.1 68.7C106.6 101.9 117.3 150.5 101.3 175.4C85.2 200.2 42.6 201.4 0 202.5L0 0Z" fill="#e2bcfb"></path><path d="M101.3 0C83.5 8.9 65.8 17.8 59.5 34.4C53.3 51 58.6 75.3 50.6 87.7C42.6 100.1 21.3 100.7 0 101.3L0 0Z" fill="#dcaffa"></path></g></svg>